<svg width="5" height="8" viewBox="0 0 5 8" fill="none" xmlns="http://www.w3.org/2000/svg">
<path fill-rule="evenodd" clip-rule="evenodd" d="M0.234229 7.75577C0.0842524 7.60575 0 7.4023 0 7.19017C0 6.97804 0.0842524 6.77459 0.234229 6.62457L2.86863 3.99017L0.234229 1.35577C0.0885028 1.20489 0.00786698 1.00281 0.00968971 0.793049C0.0115124 0.583291 0.0956478 0.382641 0.243974 0.234315C0.392301 0.0859883 0.592951 0.00185298 0.802708 3.0242e-05C1.01247 -0.00179249 1.21455 0.0788433 1.36543 0.22457L4.56543 3.42457C4.71541 3.57459 4.79966 3.77804 4.79966 3.99017C4.79966 4.2023 4.71541 4.40575 4.56543 4.55577L1.36543 7.75577C1.21541 7.90575 1.01196 7.99 0.799829 7.99C0.587698 7.99 0.384251 7.90575 0.234229 7.75577Z" fill="#7E7F7C"/>
</svg>
